<svg xmlns="http://www.w3.org/2000/svg" xmlns:xlink="http://www.w3.org/1999/xlink" width="500" zoomAndPan="magnify" viewBox="0 0 375 374.999991" height="500" preserveAspectRatio="xMidYMid meet" version="1.0"><defs><clipPath id="ece797b063"><path d="M 37.5 37.5 L 337.5 37.5 L 337.5 337.5 L 37.5 337.5 Z M 37.5 37.5 " clip-rule="nonzero"/></clipPath></defs><path fill="#ffffff" d="M 107.4375 146.300781 L 129.628906 146.300781 C 129.90625 146.300781 130.183594 146.328125 130.457031 146.382812 C 130.730469 146.4375 130.996094 146.519531 131.257812 146.625 C 131.515625 146.734375 131.757812 146.863281 131.992188 147.019531 C 132.222656 147.175781 132.4375 147.351562 132.636719 147.546875 C 132.835938 147.746094 133.011719 147.960938 133.164062 148.191406 C 133.320312 148.425781 133.453125 148.671875 133.558594 148.929688 C 133.664062 149.1875 133.746094 149.453125 133.800781 149.726562 C 133.855469 150 133.882812 150.277344 133.882812 150.558594 L 133.882812 272.605469 C 133.882812 272.886719 133.855469 273.164062 133.800781 273.4375 C 133.746094 273.710938 133.664062 273.976562 133.558594 274.234375 C 133.453125 274.492188 133.320312 274.738281 133.164062 274.96875 C 133.011719 275.203125 132.835938 275.417969 132.636719 275.617188 C 132.4375 275.8125 132.222656 275.988281 131.992188 276.144531 C 131.757812 276.300781 131.515625 276.429688 131.257812 276.539062 C 130.996094 276.644531 130.730469 276.726562 130.457031 276.78125 C 130.183594 276.835938 129.90625 276.863281 129.628906 276.863281 L 107.4375 276.863281 C 107.160156 276.863281 106.882812 276.835938 106.609375 276.78125 C 106.335938 276.726562 106.066406 276.644531 105.808594 276.539062 C 105.550781 276.429688 105.304688 276.300781 105.074219 276.144531 C 104.84375 275.988281 104.625 275.8125 104.429688 275.617188 C 104.230469 275.417969 104.054688 275.203125 103.898438 274.96875 C 103.746094 274.738281 103.613281 274.492188 103.507812 274.234375 C 103.398438 273.976562 103.320312 273.710938 103.265625 273.4375 C 103.210938 273.164062 103.183594 272.886719 103.183594 272.605469 L 103.183594 150.558594 C 103.183594 150.277344 103.210938 150 103.265625 149.726562 C 103.320312 149.453125 103.398438 149.1875 103.507812 148.929688 C 103.613281 148.671875 103.746094 148.425781 103.898438 148.191406 C 104.054688 147.960938 104.230469 147.746094 104.429688 147.546875 C 104.625 147.351562 104.84375 147.175781 105.074219 147.019531 C 105.304688 146.863281 105.550781 146.734375 105.808594 146.625 C 106.066406 146.519531 106.335938 146.4375 106.609375 146.382812 C 106.882812 146.328125 107.160156 146.300781 107.4375 146.300781 Z M 107.4375 146.300781 " fill-opacity="1" fill-rule="nonzero"/><path fill="#ffffff" d="M 136.40625 116.191406 C 136.371094 105.726562 128.867188 98.136719 118.535156 98.136719 C 108.203125 98.136719 100.410156 105.929688 100.410156 116.265625 C 100.410156 121.074219 102.164062 125.542969 105.347656 128.859375 C 108.621094 132.261719 113.125 134.136719 118.03125 134.136719 C 123.464844 134.136719 128.320312 132.222656 131.695312 128.722656 C 134.859375 125.449219 136.53125 121.03125 136.410156 116.265625 C 136.410156 116.242188 136.40625 116.222656 136.40625 116.191406 Z M 136.40625 116.191406 " fill-opacity="1" fill-rule="nonzero"/><path fill="#ffffff" d="M 257.949219 154.886719 C 246.898438 145.003906 233.949219 143.527344 227.214844 143.527344 C 217.152344 143.527344 207.5625 146.21875 199.480469 151.304688 C 195.945312 153.53125 192.753906 156.167969 189.902344 159.21875 L 189.347656 150.28125 C 189.3125 149.742188 189.179688 149.226562 188.949219 148.734375 C 188.71875 148.246094 188.40625 147.816406 188.011719 147.445312 C 187.613281 147.074219 187.164062 146.789062 186.660156 146.589844 C 186.15625 146.390625 185.632812 146.292969 185.089844 146.292969 L 165.433594 146.292969 C 165.140625 146.292969 164.851562 146.324219 164.566406 146.382812 C 164.277344 146.441406 164 146.53125 163.730469 146.648438 C 163.464844 146.765625 163.210938 146.910156 162.972656 147.078125 C 162.734375 147.25 162.515625 147.441406 162.316406 147.65625 C 162.117188 147.871094 161.941406 148.101562 161.789062 148.355469 C 161.636719 148.605469 161.515625 148.867188 161.417969 149.144531 C 161.320312 149.421875 161.253906 149.703125 161.214844 149.996094 C 161.175781 150.285156 161.167969 150.574219 161.191406 150.867188 C 161.890625 160.183594 162.1875 169.96875 162.1875 183.582031 L 162.1875 272.605469 C 162.1875 272.886719 162.214844 273.164062 162.269531 273.4375 C 162.324219 273.710938 162.402344 273.976562 162.511719 274.234375 C 162.617188 274.492188 162.75 274.738281 162.90625 274.96875 C 163.058594 275.203125 163.234375 275.417969 163.433594 275.617188 C 163.632812 275.8125 163.847656 275.988281 164.078125 276.144531 C 164.3125 276.300781 164.554688 276.429688 164.8125 276.539062 C 165.070312 276.644531 165.339844 276.726562 165.613281 276.78125 C 165.886719 276.835938 166.164062 276.863281 166.441406 276.863281 L 188.632812 276.863281 C 188.914062 276.863281 189.191406 276.835938 189.464844 276.78125 C 189.738281 276.726562 190.003906 276.644531 190.261719 276.539062 C 190.519531 276.429688 190.765625 276.300781 191 276.144531 C 191.230469 275.988281 191.445312 275.8125 191.644531 275.617188 C 191.839844 275.417969 192.015625 275.203125 192.171875 274.96875 C 192.328125 274.738281 192.457031 274.492188 192.566406 274.234375 C 192.671875 273.976562 192.753906 273.710938 192.808594 273.4375 C 192.863281 273.164062 192.890625 272.886719 192.890625 272.605469 L 192.890625 199.226562 C 192.890625 195.777344 193.347656 192.539062 194.148438 190.339844 C 194.171875 190.273438 194.195312 190.203125 194.214844 190.128906 C 197.214844 180.339844 206.320312 170.441406 219.902344 170.441406 C 228.308594 170.441406 234.34375 173.316406 238.351562 179.230469 C 241.96875 184.574219 243.882812 192.535156 243.882812 202.246094 L 243.882812 272.605469 C 243.882812 272.886719 243.910156 273.164062 243.964844 273.4375 C 244.019531 273.710938 244.101562 273.976562 244.207031 274.234375 C 244.3125 274.492188 244.445312 274.738281 244.601562 274.96875 C 244.753906 275.203125 244.933594 275.417969 245.128906 275.617188 C 245.328125 275.8125 245.542969 275.988281 245.773438 276.144531 C 246.007812 276.300781 246.25 276.429688 246.511719 276.539062 C 246.769531 276.644531 247.035156 276.726562 247.308594 276.78125 C 247.582031 276.835938 247.859375 276.863281 248.136719 276.863281 L 270.328125 276.863281 C 270.609375 276.863281 270.886719 276.835938 271.160156 276.78125 C 271.433594 276.726562 271.699219 276.644531 271.957031 276.539062 C 272.214844 276.429688 272.460938 276.300781 272.695312 276.144531 C 272.925781 275.988281 273.140625 275.8125 273.339844 275.617188 C 273.535156 275.417969 273.710938 275.203125 273.867188 274.96875 C 274.023438 274.738281 274.152344 274.492188 274.261719 274.234375 C 274.367188 273.976562 274.449219 273.710938 274.503906 273.4375 C 274.558594 273.164062 274.585938 272.886719 274.585938 272.605469 L 274.585938 199.730469 C 274.585938 189.347656 273.015625 180.144531 269.921875 172.378906 C 267.140625 165.394531 263.113281 159.507812 257.949219 154.886719 Z M 257.949219 154.886719 " fill-opacity="1" fill-rule="nonzero"/><g clip-path="url(#ece797b063)"><path fill="#ffffff" d="M 298.445312 37.5 L 76.554688 37.5 C 55.019531 37.5 37.5 55.019531 37.5 76.554688 L 37.5 298.445312 C 37.5 319.980469 55.019531 337.5 76.554688 337.5 L 298.445312 337.5 C 319.980469 337.5 337.5 319.980469 337.5 298.445312 L 337.5 76.554688 C 337.5 55.019531 319.980469 37.5 298.445312 37.5 Z M 310.078125 78.445312 L 310.078125 296.554688 C 310.074219 297.441406 309.988281 298.320312 309.8125 299.191406 C 309.640625 300.0625 309.382812 300.90625 309.042969 301.726562 C 308.703125 302.546875 308.285156 303.324219 307.792969 304.0625 C 307.300781 304.800781 306.738281 305.484375 306.113281 306.109375 C 305.484375 306.738281 304.800781 307.300781 304.0625 307.792969 C 303.324219 308.285156 302.546875 308.703125 301.726562 309.042969 C 300.90625 309.382812 300.0625 309.640625 299.191406 309.8125 C 298.320312 309.988281 297.441406 310.074219 296.554688 310.078125 L 78.445312 310.078125 C 77.558594 310.074219 76.679688 309.988281 75.808594 309.8125 C 74.9375 309.640625 74.09375 309.382812 73.273438 309.042969 C 72.453125 308.703125 71.675781 308.285156 70.9375 307.792969 C 70.199219 307.300781 69.515625 306.738281 68.886719 306.109375 C 68.261719 305.484375 67.699219 304.800781 67.207031 304.0625 C 66.714844 303.324219 66.296875 302.546875 65.957031 301.726562 C 65.617188 300.90625 65.359375 300.0625 65.1875 299.191406 C 65.011719 298.320312 64.925781 297.441406 64.921875 296.554688 L 64.921875 78.445312 C 64.925781 77.558594 65.011719 76.679688 65.1875 75.808594 C 65.359375 74.9375 65.617188 74.09375 65.957031 73.273438 C 66.296875 72.453125 66.714844 71.675781 67.207031 70.9375 C 67.699219 70.199219 68.261719 69.515625 68.890625 68.886719 C 69.515625 68.261719 70.199219 67.699219 70.9375 67.207031 C 71.675781 66.714844 72.453125 66.296875 73.273438 65.957031 C 74.09375 65.617188 74.9375 65.359375 75.808594 65.1875 C 76.679688 65.011719 77.558594 64.925781 78.445312 64.921875 L 296.554688 64.921875 C 297.441406 64.925781 298.320312 65.011719 299.191406 65.1875 C 300.0625 65.359375 300.90625 65.617188 301.726562 65.957031 C 302.546875 66.296875 303.324219 66.714844 304.0625 67.207031 C 304.800781 67.699219 305.484375 68.261719 306.109375 68.886719 C 306.738281 69.515625 307.300781 70.199219 307.792969 70.9375 C 308.285156 71.675781 308.703125 72.453125 309.042969 73.273438 C 309.382812 74.09375 309.640625 74.9375 309.8125 75.808594 C 309.988281 76.679688 310.074219 77.558594 310.078125 78.445312 Z M 310.078125 78.445312 " fill-opacity="1" fill-rule="nonzero"/></g></svg>