<svg xmlns="http://www.w3.org/2000/svg" xmlns:xlink="http://www.w3.org/1999/xlink" width="500" zoomAndPan="magnify" viewBox="0 0 375 374.999991" height="500" preserveAspectRatio="xMidYMid meet" version="1.0"><defs><clipPath id="209500b9e0"><path d="M 37.5 104 L 138 104 L 138 272 L 37.5 272 Z M 37.5 104 " clip-rule="nonzero"/></clipPath><clipPath id="fb3c6a2496"><path d="M 53 91.3125 L 322 91.3125 L 322 205 L 53 205 Z M 53 91.3125 " clip-rule="nonzero"/></clipPath><clipPath id="ad43f445d0"><path d="M 237 104 L 337.5 104 L 337.5 272 L 237 272 Z M 237 104 " clip-rule="nonzero"/></clipPath></defs><path fill="#ffffff" d="M 320.945312 280.5625 L 226.792969 202.234375 C 224.042969 199.945312 220.050781 199.945312 217.300781 202.234375 L 191.9375 223.335938 C 189.382812 225.457031 185.683594 225.457031 183.128906 223.335938 L 157.765625 202.234375 C 155.015625 199.945312 151.023438 199.945312 148.269531 202.234375 L 54.121094 280.5625 C 52.824219 281.636719 53.585938 283.746094 55.269531 283.746094 L 319.796875 283.746094 C 321.476562 283.746094 322.238281 281.636719 320.945312 280.5625 " fill-opacity="1" fill-rule="nonzero"/><g clip-path="url(#209500b9e0)"><path fill="#ffffff" d="M 136.511719 184.550781 L 40.488281 104.667969 C 39.316406 103.691406 37.539062 104.527344 37.539062 106.054688 L 37.539062 269.304688 C 37.539062 270.832031 39.316406 271.664062 40.488281 270.691406 L 136.511719 190.808594 C 138.464844 189.179688 138.464844 186.175781 136.511719 184.550781 " fill-opacity="1" fill-rule="nonzero"/></g><g clip-path="url(#fb3c6a2496)"><path fill="#ffffff" d="M 54.121094 94.800781 L 183.929688 202.789062 C 186.019531 204.527344 189.046875 204.527344 191.132812 202.789062 L 320.945312 94.800781 C 322.238281 93.722656 321.476562 91.609375 319.796875 91.609375 L 55.269531 91.609375 C 53.585938 91.609375 52.824219 93.722656 54.121094 94.800781 " fill-opacity="1" fill-rule="nonzero"/></g><g clip-path="url(#ad43f445d0)"><path fill="#ffffff" d="M 334.578125 104.667969 L 238.554688 184.550781 C 236.601562 186.175781 236.601562 189.179688 238.554688 190.808594 L 334.578125 270.691406 C 335.746094 271.664062 337.523438 270.832031 337.523438 269.308594 L 337.523438 106.054688 C 337.523438 104.527344 335.746094 103.691406 334.578125 104.667969 " fill-opacity="1" fill-rule="nonzero"/></g></svg>