<svg xmlns="http://www.w3.org/2000/svg" xmlns:xlink="http://www.w3.org/1999/xlink" width="500" zoomAndPan="magnify" viewBox="0 0 375 374.999991" height="500" preserveAspectRatio="xMidYMid meet" version="1.0"><defs><clipPath id="3e8658e3d5"><path d="M 51.574219 51.574219 L 323.074219 51.574219 L 323.074219 323.074219 L 51.574219 323.074219 Z M 51.574219 51.574219 " clip-rule="nonzero"/></clipPath></defs><g clip-path="url(#3e8658e3d5)"><path fill="#ffffff" d="M 320.050781 251.132812 C 322.035156 256.4375 323.195312 262.132812 323.371094 268.089844 C 323.414062 268.65625 323.414062 269.222656 323.414062 269.8125 C 323.414062 299.40625 299.40625 323.414062 269.8125 323.414062 C 149.28125 323.414062 51.574219 225.707031 51.574219 105.175781 C 51.574219 75.582031 75.582031 51.574219 105.175781 51.574219 C 105.761719 51.574219 106.332031 51.574219 106.898438 51.617188 C 112.855469 51.792969 118.574219 52.949219 123.875 54.9375 L 144 142.058594 C 144 142.101562 143.976562 142.121094 143.933594 142.144531 L 107.027344 158.730469 L 106.921875 158.773438 C 123.855469 210.34375 164.644531 251.132812 216.214844 268.070312 L 216.257812 267.957031 L 232.867188 231.03125 L 320.050781 251.132812 " fill-opacity="1" fill-rule="nonzero"/></g></svg>