<svg xmlns="http://www.w3.org/2000/svg" xmlns:xlink="http://www.w3.org/1999/xlink" width="500" zoomAndPan="magnify" viewBox="0 0 375 374.999991" height="500" preserveAspectRatio="xMidYMid meet" version="1.0"><path fill="#ffffff" d="M 251.90625 249.375 C 257.066406 261.3125 255.660156 273.757812 255.738281 286.050781 C 255.816406 298.304688 255.8125 310.5625 255.730469 322.816406 C 255.660156 331.933594 248.320312 338.007812 239.859375 336.152344 C 233.957031 334.855469 229.8125 329.71875 229.796875 323.375 C 229.761719 306.054688 229.699219 288.730469 229.875 271.414062 C 229.964844 262.78125 227.421875 255.289062 221.59375 248.949219 C 217.835938 244.863281 216.46875 240.207031 218.480469 234.960938 C 220.429688 229.875 224.410156 227.511719 229.765625 226.519531 C 239.582031 224.691406 249.550781 223.117188 259.019531 220.078125 C 280.898438 213.0625 293.707031 197.441406 298.382812 175.171875 C 301.246094 161.523438 302.582031 147.734375 299.082031 133.941406 C 296.824219 125.050781 292.609375 117.117188 286.347656 110.425781 C 281.769531 105.535156 280.671875 100.351562 282.9375 94.003906 C 286.316406 84.550781 286.664062 74.839844 284.175781 64.460938 C 280.765625 65.621094 277.382812 66.355469 274.394531 67.871094 C 266.832031 71.703125 259.265625 75.597656 252.046875 80.03125 C 247.203125 83.003906 242.589844 83.890625 237.085938 82.46875 C 210.582031 75.609375 184.058594 75.621094 157.519531 82.5 C 152.140625 83.894531 147.496094 83.210938 142.859375 80.066406 C 133.792969 73.925781 124.253906 68.617188 113.664062 65.46875 C 112.71875 65.1875 111.746094 65.003906 110.558594 64.71875 C 108.589844 71.964844 108.429688 79.066406 109.769531 86.183594 C 110.367188 89.351562 111.320312 92.460938 112.296875 95.539062 C 113.871094 100.496094 113.210938 105.039062 109.683594 108.851562 C 98.128906 121.332031 93 136.0625 93.671875 152.976562 C 94.136719 164.675781 95.558594 176.179688 99.917969 187.144531 C 106.988281 204.917969 120.460938 215.699219 138.292969 221.121094 C 146.671875 223.667969 155.386719 225.210938 164.039062 226.695312 C 172.820312 228.199219 178.019531 233.597656 176.859375 241.554688 C 176.488281 244.09375 175.171875 246.847656 173.46875 248.78125 C 167.308594 255.761719 164.679688 263.710938 164.820312 272.992188 C 165.074219 289.699219 164.945312 306.417969 164.878906 323.128906 C 164.851562 330.800781 159.359375 336.457031 152.109375 336.554688 C 144.8125 336.652344 139.171875 330.859375 139.097656 323.054688 C 139.027344 315.777344 139.082031 308.5 139.082031 301.605469 C 132.460938 301.605469 126.101562 301.949219 119.789062 301.539062 C 104.742188 300.558594 92.207031 293.996094 81.988281 283.097656 C 77.355469 278.160156 73.199219 272.769531 68.878906 267.542969 C 65.3125 263.222656 61.601562 259.394531 55.960938 257.445312 C 49.707031 255.28125 46.84375 247.84375 49 241.5625 C 51.214844 235.109375 57.914062 231.558594 64.554688 233.265625 C 73.136719 235.464844 79.832031 240.558594 85.5 247.101562 C 89.605469 251.847656 93.546875 256.742188 97.429688 261.675781 C 108.289062 275.488281 122.460938 278.359375 138.714844 274.46875 C 139.015625 270.148438 139.058594 265.890625 139.683594 261.71875 C 140.296875 257.644531 141.507812 253.664062 142.476562 249.542969 C 137.851562 248.132812 132.992188 246.824219 128.253906 245.175781 C 93.601562 233.117188 74.789062 208.128906 69.433594 172.429688 C 67.324219 158.359375 66.605469 144.226562 69.855469 130.160156 C 72.441406 118.960938 77.066406 108.710938 83.902344 99.484375 C 85.078125 97.898438 85.5 96.492188 85.050781 94.507812 C 81.398438 78.441406 82.722656 62.746094 88.855469 47.460938 C 91.402344 41.113281 95.613281 38.5625 102.394531 38.246094 C 118.40625 37.496094 132.386719 43.644531 145.546875 51.53125 C 151.851562 55.3125 157.425781 55.992188 164.460938 54.597656 C 188.488281 49.824219 212.578125 50.519531 236.511719 55.671875 C 239.273438 56.265625 241.398438 55.992188 243.839844 54.496094 C 255.710938 47.226562 268.078125 40.957031 282.007812 38.75 C 286.261719 38.078125 290.714844 38.074219 295.015625 38.464844 C 300.144531 38.929688 303.691406 42.035156 305.644531 46.855469 C 311.953125 62.410156 313.375 78.367188 309.765625 94.789062 C 309.484375 96.058594 309.800781 97.863281 310.554688 98.894531 C 323.21875 116.253906 328.15625 135.726562 326.859375 157 C 325.996094 171.121094 323.820312 184.964844 318.285156 198.09375 C 307.820312 222.925781 288.84375 238.105469 263.585938 246.082031 C 259.847656 247.261719 256.035156 248.21875 251.90625 249.375 Z M 251.90625 249.375 " fill-opacity="1" fill-rule="nonzero"/></svg>